<?xml version="1.0" encoding="UTF-8" standalone="no"?>
<svg width="138px" height="36px" viewBox="0 0 138 36" version="1.1" xmlns="http://www.w3.org/2000/svg" xmlns:xlink="http://www.w3.org/1999/xlink">
    <!-- Generator: sketchtool 41 (35326) - http://www.bohemiancoding.com/sketch -->
    <title>A8023509-A24D-4CCB-91B2-E18B9BB99A4E</title>
    <desc>Created with sketchtool.</desc>
    <defs>
        <polygon id="path-1" points="5.17667195e-21 0.268846154 5.17667195e-21 9.16038462 7.58586707 9.16038462 7.58586707 0.268846154 0 0.268846154"></polygon>
        <polygon id="path-3" points="0 9.81323077 90.7410237 9.81323077 90.7410237 0.769384615 0 0.769384615"></polygon>
    </defs>
    <g id="*Elementer" stroke="none" stroke-width="1" fill="none" fill-rule="evenodd">
        <g id="Top-navigation" transform="translate(-30.000000, -10.000000)">
            <g id="Group-4" transform="translate(30.000000, 10.000000)">
                <g id="Page-1" transform="translate(47.000000, 13.000000)">
                    <g id="Group-3" transform="translate(0.000000, 0.582462)">
                        <mask id="mask-2" fill="white">
                            <use xlink:href="#path-1"></use>
                        </mask>
                        <g id="Clip-2"></g>
                        <path d="M5.85095493,4.63269231 C5.85095493,6.57115385 4.72566845,7.68269231 2.7631016,7.68269231 C2.25889992,7.68269231 1.96172651,7.67423077 1.63017571,7.625 L1.63017571,1.79269231 C1.91207028,1.75423077 2.24973262,1.735 2.6355233,1.735 C4.64927426,1.735 5.85095493,2.81807692 5.85095493,4.63269231 M2.4605806,0.268846154 C1.65080214,0.268846154 0.960198625,0.309615385 0.0786096257,0.410384615 L-7.6394194e-05,0.418846154 L-7.6394194e-05,9.01192308 L0.0801375095,9.01961538 C0.973185638,9.105 1.62711994,9.16038462 2.54232238,9.16038462 C6.26042781,9.16038462 7.58586707,6.82115385 7.58586707,4.63269231 C7.58586707,2.61961538 6.24362108,0.268846154 2.4605806,0.268846154" id="Fill-1" fill="#FFFFFF" mask="url(#mask-2)"></path>
                    </g>
                    <polygon id="Fill-4" fill="#FFFFFF" points="9.47196333 9.76123077 15.0235294 9.76123077 15.0235294 8.07123077 11.2779221 8.07123077 11.2779221 6.04815385 14.6629488 6.04815385 14.6629488 4.40507692 11.2779221 4.40507692 11.2779221 2.51123077 15.0235294 2.51123077 15.0235294 0.821230769 9.47196333 0.821230769"></polygon>
                    <polygon id="Fill-6" fill="#FFFFFF" points="25.4938121 4.49392308 21.7497326 4.49392308 21.7497326 0.910076923 20.1202445 0.910076923 20.1202445 9.67238462 21.7497326 9.67238462 21.7497326 5.98315385 25.4938121 5.98315385 25.4938121 9.67238462 27.1240642 9.67238462 27.1240642 0.910076923 25.4938121 0.910076923"></polygon>
                    <mask id="mask-4" fill="white">
                        <use xlink:href="#path-3"></use>
                    </mask>
                    <g id="Clip-9"></g>
                    <polygon id="Fill-8" fill="#FFFFFF" mask="url(#mask-4)" points="29.4362108 9.67246154 31.0664629 9.67246154 31.0664629 0.910153846 29.4362108 0.910153846"></polygon>
                    <path d="M36.1889992,4.52476923 C35.1110772,4.04707692 34.7642475,3.73092308 34.7642475,3.224 C34.7642475,2.75169231 35.086631,2.24707692 35.9903743,2.24707692 C36.587013,2.24707692 37.257754,2.56630769 37.6504202,2.84015385 L37.744385,2.90553846 L38.2722689,1.444 L38.2149733,1.40553846 C37.7627196,1.09784615 36.9498854,0.769384615 36.0255157,0.769384615 C34.1271199,0.769384615 33.1339954,2.02169231 33.1339954,3.25938462 C33.1339954,4.39015385 33.7749427,5.16630769 35.2119175,5.77707692 C36.5396486,6.34169231 36.7634836,6.68553846 36.7634836,7.24169231 C36.7634836,7.74169231 36.4472116,8.27707692 35.560275,8.27707692 C34.8605042,8.27707692 34.0698243,7.99246154 33.389916,7.49784615 L33.297479,7.42938462 L32.7306341,8.91630769 L32.7902215,8.95476923 C33.6152788,9.50092308 34.6076394,9.81323077 35.5136746,9.81323077 C37.4197097,9.81323077 38.4166539,8.47861538 38.4166539,7.15938462 C38.4166539,5.934 37.8337662,5.24476923 36.1889992,4.52476923" id="Fill-10" fill="#FFFFFF" mask="url(#mask-4)"></path>
                    <polygon id="Fill-11" fill="#FFFFFF" mask="url(#mask-4)" points="39.5770053 2.42261538 42.2874714 2.42261538 42.2874714 9.67261538 43.9177235 9.67261538 43.9177235 2.42261538 46.6159664 2.42261538 46.6159664 0.909538462 39.5770053 0.909538462"></polygon>
                    <path d="M51.842628,8.33553846 C50.2964095,8.33553846 49.1741788,7.05784615 49.1741788,5.29707692 C49.1741788,3.53630769 50.2964095,2.25861538 51.842628,2.25861538 C53.3827349,2.25861538 54.499618,3.53630769 54.499618,5.29707692 C54.499618,7.05784615 53.3827349,8.33553846 51.842628,8.33553846 M51.8777693,0.769384615 C49.3475936,0.769384615 47.4392666,2.71553846 47.4392666,5.29707692 C47.4392666,7.914 49.2719633,9.81323077 51.7960275,9.81323077 C54.3262032,9.81323077 56.2345302,7.87169231 56.2345302,5.29707692 C56.2345302,2.67323077 54.4025974,0.769384615 51.8777693,0.769384615" id="Fill-12" fill="#FFFFFF" mask="url(#mask-4)"></path>
                    <path d="M62.4193277,3.71592308 C62.4193277,4.67823077 61.7730328,5.20823077 60.600382,5.20823077 C60.3131398,5.20823077 60.0663866,5.19592308 59.850191,5.17130769 L59.850191,2.39592308 C60.1343774,2.34746154 60.4567609,2.34053846 60.7394194,2.34053846 C61.7753247,2.34053846 62.4193277,2.86746154 62.4193277,3.71592308 M64.1305577,3.64592308 C64.1305577,1.89592308 62.7936593,0.851307692 60.5530176,0.851307692 C59.796715,0.851307692 59.1007639,0.895153846 58.297861,0.992846154 L58.2207028,1.00207692 L58.2207028,9.67284615 L59.850191,9.67284615 L59.850191,6.57284615 C60.2604278,6.58976923 60.6538579,6.60592308 61.0174943,6.58438462 L62.876929,9.67284615 L64.7753247,9.67284615 L62.5087089,6.16669231 C63.5415584,5.67284615 64.1305577,4.759 64.1305577,3.64592308" id="Fill-13" fill="#FFFFFF" mask="url(#mask-4)"></path>
                    <polygon id="Fill-14" fill="#FFFFFF" mask="url(#mask-4)" points="66.1986249 9.67246154 67.828877 9.67246154 67.828877 0.910153846 66.1986249 0.910153846"></polygon>
                    <path d="M72.9520244,4.52476923 C71.8741024,4.04707692 71.5272727,3.73092308 71.5272727,3.224 C71.5272727,2.75169231 71.8496562,2.24707692 72.7533995,2.24707692 C73.3500382,2.24707692 74.0207792,2.56630769 74.4134454,2.84015385 L74.5074102,2.90553846 L75.0352941,1.444 L74.9779985,1.40553846 C74.5257448,1.09784615 73.7129106,0.769384615 72.7885409,0.769384615 C70.8901451,0.769384615 69.8970206,2.02169231 69.8970206,3.25938462 C69.8970206,4.39015385 70.5379679,5.16630769 71.9749427,5.77707692 C73.3026738,6.34169231 73.5265088,6.68553846 73.5265088,7.24169231 C73.5265088,7.74169231 73.2102368,8.27707692 72.3233002,8.27707692 C71.6235294,8.27707692 70.8328495,7.99246154 70.1529412,7.49784615 L70.0605042,7.42938462 L69.4936593,8.91630769 L69.5532468,8.95476923 C70.378304,9.50092308 71.3706646,9.81323077 72.2766998,9.81323077 C74.1827349,9.81323077 75.1796791,8.47861538 75.1796791,7.15938462 C75.1796791,5.934 74.5967914,5.24476923 72.9520244,4.52476923" id="Fill-15" fill="#FFFFFF" mask="url(#mask-4)"></path>
                    <polygon id="Fill-16" fill="#FFFFFF" mask="url(#mask-4)" points="83.8273491 0.909923077 81.8319328 0.909923077 78.6096257 4.62684615 78.6096257 0.909923077 76.9801375 0.909923077 76.9801375 9.67223077 78.6096257 9.67223077 78.6096257 5.70223077 81.9709702 9.67223077 84.0099312 9.67223077 80.0244461 5.12223077"></polygon>
                    <polygon id="Fill-17" fill="#FFFFFF" mask="url(#mask-4)" points="90.7409473 2.42261538 90.7409473 0.909538462 85.3650879 0.909538462 85.3650879 9.67261538 90.7409473 9.67261538 90.7409473 8.15953846 86.99534 8.15953846 86.99534 5.95953846 90.3803667 5.95953846 90.3803667 4.49415385 86.99534 4.49415385 86.99534 2.42261538"></polygon>
                </g>
                <g id="Group-2" fill="#FFFFFF">
                    <path d="M22.8812758,16.8942415 C22.8812758,16.8942415 22.5811908,16.7833195 22.2348015,16.5443533 C22.0581451,16.5666121 21.8793299,16.5790443 21.6971647,16.578821 L21.6816058,16.578821 C21.6723003,16.5790443 21.6664192,16.5790443 21.6638137,16.578821 L21.659347,16.578821 C21.2888377,16.5790443 20.9263684,16.5353455 20.5777457,16.4501813 C20.5917412,16.4693134 20.6039501,16.4897856 20.6183178,16.5088434 C20.9545828,16.9585614 21.4072041,17.398825 21.9760331,17.7886154 C21.9682909,17.7940498 21.9610698,17.7997076 21.9537742,17.8049931 L21.9392576,17.8049931 C21.9418631,17.8070776 21.9443198,17.8089387 21.9466276,17.8107998 C21.9443198,17.8122142 21.9418631,17.8139265 21.9392576,17.815862 L21.9537742,17.815862 C21.9610698,17.8213709 21.9682909,17.8270287 21.9760331,17.8322398 C21.4072041,18.2223279 20.9545828,18.6624426 20.6183178,19.1121607 C20.6039501,19.1314418 20.5917412,19.1516906 20.5778946,19.1709717 C20.4504459,19.3474047 20.3398962,19.532771 20.2460963,19.7263262 C20.0230612,20.1856476 19.8942725,20.6888166 19.864197,21.2201256 C19.8589115,21.307151 19.854966,21.3943997 19.854966,21.4827651 C19.8545937,21.5656216 19.8574971,21.6478081 19.8624104,21.7293991 C19.9153403,22.6733529 20.3089273,23.5235068 21.0031205,24.1671523 C21.5969627,24.729579 22.3338124,25.0688961 23.151732,25.1836148 C23.1973663,25.1162427 23.2430007,25.0489451 23.2840195,24.9838063 C23.4935058,24.6567725 23.6422455,24.3601864 23.7408842,24.1023113 C22.9270591,24.0868269 22.3075336,23.8421284 21.7731723,23.3466272 C21.2338978,22.8312492 20.9871149,22.2582514 20.9807872,21.4827651 C20.9808616,21.3360354 20.9926983,21.1974945 21.0119049,21.0637926 C21.0320793,20.9229439 21.061857,20.7887953 21.1008658,20.6594111 C21.1939212,20.3486806 21.3364076,20.0646011 21.5191684,19.786775 C21.5933149,19.6736196 21.6775114,19.5713332 21.7656535,19.4777567 C21.9164032,19.316957 22.0801062,19.183925 22.2348015,19.0767252 C22.5811908,18.8378334 22.8812758,18.7269114 22.8812758,18.7269114 L25.9186779,17.8134054 L25.9096701,17.8107998 L25.9186779,17.8075987 L22.8812758,16.8942415 Z M36,17.8103531 C36,17.8103531 35.9828778,17.805812 35.9536212,17.797772 L35.9531001,17.797772 C35.6187707,17.7068011 33.5384246,17.1286666 32.7237806,16.6526698 C31.6916848,16.1233708 30.5899091,15.2713557 29.4325235,14.0750357 C29.4265679,14.0689313 29.4209102,14.0628269 29.4148057,14.0562758 L29.2004806,13.8443328 L28.8722556,13.5009212 C27.6551657,12.2545747 26.5705866,11.3590097 25.5544219,10.8578507 C25.3815622,10.7723142 25.2107125,10.7003265 25.0414262,10.6380166 C24.6183592,10.4823536 24.2054167,10.3972638 23.797983,10.3907127 C23.7408842,10.3904149 23.6853487,10.3954771 23.6281755,10.3970404 C23.4667803,10.4022515 23.3075439,10.4155771 23.151732,10.4375381 C22.3339613,10.5520335 21.5969627,10.8912762 21.0031205,11.4537029 C20.3096718,12.0962317 19.9168292,12.9450456 19.8624104,13.8870639 C19.9635802,13.9921792 20.0735344,14.0925301 20.1983031,14.1738978 C20.4695781,14.350703 20.7281232,14.4791939 21.0119049,14.5574348 C20.9926983,14.4238073 20.9808616,14.2851175 20.9807872,14.13809 C20.9871149,13.3626782 21.2338978,12.7896059 21.7731723,12.2744513 C22.3075336,11.77895 22.9270591,11.5340283 23.741182,11.5186928 C23.760463,11.5183205 23.7782552,11.5164594 23.797983,11.5162361 C23.9181361,11.5128117 24.0493814,11.5260627 24.1898578,11.5540538 C24.539076,11.6241059 24.9498597,11.7935411 25.4119355,12.0665284 C25.5443719,12.1444716 25.6801583,12.2297103 25.8206347,12.3253712 C26.4855712,12.7770993 27.2394687,13.4225314 28.0606638,14.280502 L28.3973754,14.6325491 L28.6227928,14.855882 L28.6249517,14.8581898 C29.9521447,16.2261039 31.2485178,17.2194142 32.5325332,17.8107998 C31.2485178,18.4016642 29.9521447,19.3948257 28.6249517,20.7628142 L28.6227928,20.7650476 L28.3973754,20.9886038 L28.0606638,21.340502 C27.2394687,22.1983982 26.4855712,22.844277 25.8206347,23.2957817 C25.8210814,23.3196039 25.8238358,23.3431283 25.8238358,23.3670993 L25.8238358,23.3954626 C25.812967,23.8538906 25.719316,24.3077031 25.5530819,24.7637489 C26.56947,24.2626643 27.6542724,23.366876 28.8722556,22.1202317 L29.2004806,21.7766712 L29.4148057,21.5645794 C29.4209102,21.5582516 29.4265679,21.5521472 29.4325235,21.5458194 C30.5899091,20.3497228 31.6916848,19.4975588 32.7237806,18.9683343 C33.5384246,18.4924119 35.6187707,17.9144263 35.9531001,17.823232 L35.9536212,17.823232 C35.9828778,17.8152665 36,17.8107998 36,17.8107998 L35.9996278,17.8107998 L36,17.8103531 Z M25.0412029,24.9828385 C25.2602924,24.4939628 25.3850611,24.0205714 25.4119355,23.5548479 C25.414541,23.5095113 25.4193799,23.4639514 25.4200499,23.4187637 C25.4204966,23.2995039 25.4148388,23.1821797 25.4065755,23.0658977 C25.3389801,22.1307283 24.9858907,21.2880188 24.3570597,20.6239012 C23.797983,20.020679 23.0824988,19.645033 22.2860192,19.5214555 C22.1176261,19.6553063 21.9516153,19.8167016 21.8261022,20.0084701 C21.6944847,20.2105119 21.591156,20.4051094 21.5133617,20.6081934 C21.5659938,20.6053645 21.6178815,20.6016423 21.6723003,20.6015679 C22.44801,20.6081934 23.0213055,20.8548274 23.5361624,21.3940275 C24.0438725,21.9411187 24.2899109,22.5760542 24.2943776,23.4187637 C24.2963131,23.4825625 24.2925165,23.5497112 24.2855187,23.6193911 C24.2714487,23.757113 24.2388421,23.9071183 24.1898578,24.0669502 C24.0851891,24.4072352 23.9003439,24.7945689 23.6283244,25.2238147 C23.5479246,25.3514123 23.4571769,25.4833276 23.3612182,25.6178484 C22.9177535,26.2387884 22.3134891,26.9319393 21.5301861,27.6817423 L21.1780646,28.0185284 L20.9547317,28.2437224 L20.9525728,28.246179 C19.5842865,29.5732232 18.591125,30.8692241 17.9998883,32.1533884 C17.4089494,30.8692241 16.4156391,29.5732232 15.0473528,28.246179 L15.0451195,28.2437224 L14.8217865,28.0185284 L14.469665,27.6817423 C13.6867342,26.9319393 13.0822465,26.239235 12.6390051,25.6183695 C12.5114076,25.6279729 12.3835122,25.6347473 12.2536814,25.634524 L12.2256159,25.634524 C11.8840654,25.6265584 11.5455672,25.5718419 11.2063245,25.4771487 C11.7280301,26.4059158 12.566273,27.395504 13.6901587,28.4935575 L14.0334958,28.8212613 L14.2457365,29.0358842 C14.2518409,29.0416909 14.2581687,29.0476464 14.2642731,29.0534531 C15.4608909,30.2105409 16.312906,31.312391 16.842205,32.3448591 C17.3181274,33.1595031 17.896113,35.2397748 17.987605,35.5738808 L17.987605,35.5744764 C17.9953472,35.6036585 17.9998883,35.621004 17.9998883,35.621004 L17.9998883,35.6205574 L18.000335,35.621004 C18.000335,35.621004 18.0047272,35.6036585 18.0127672,35.5744764 L18.0127672,35.5738808 C18.1037381,35.2397748 18.6820959,33.1595031 19.1580184,32.3448591 C19.6873918,31.312391 20.5394069,30.2105409 21.7358013,29.0534531 C21.741608,29.0476464 21.7480102,29.0416909 21.7541146,29.0358842 L21.9665786,28.8212613 L22.3096924,28.4935575 C23.4335037,27.3958762 24.2714487,26.406437 24.79308,25.4778187 C24.8868798,25.3108401 24.9684708,25.1461693 25.0412029,24.9828385 Z M19.4212534,21.4739807 L19.4212534,21.4696629 C19.4209557,20.9593472 19.5048544,20.4648881 19.6659519,20.0005046 C19.5412577,20.0737578 19.4187968,20.1511054 19.3019192,20.2390986 C18.8521267,20.5756613 18.4118631,21.0280593 18.021775,21.5968138 C18.0165639,21.5889971 18.0109805,21.581776 18.0054717,21.5746294 L18.0054717,21.5601127 C18.0034617,21.5629416 18.001675,21.565175 17.9998883,21.5674083 C17.9984739,21.565175 17.9966128,21.5629416 17.9947517,21.5601127 L17.9947517,21.5746294 C17.9890195,21.581776 17.9836595,21.5889971 17.9784484,21.5968138 C17.5883602,21.0280593 17.1480966,20.5756613 16.6983786,20.2390986 C16.5811288,20.1511054 16.4590401,20.0737578 16.3339737,20.0005046 C16.1483096,19.8924114 15.9547544,19.8009938 15.7538292,19.7263262 C15.3083545,19.5603898 14.8295287,19.4745556 14.3274764,19.4758211 C14.2963586,19.4758211 14.2651665,19.4771611 14.234421,19.4775333 C14.0585091,19.4808833 13.8858727,19.4948044 13.7168842,19.5211577 C12.9189901,19.6437675 12.2026126,20.0201579 11.6429403,20.6239012 C11.0139604,21.2880188 10.6609455,22.130505 10.5932756,23.0658977 C10.6077178,23.0749054 10.6229044,23.0856999 10.6372722,23.094931 C11.050587,23.3592827 11.4165552,23.5280479 11.7144813,23.6190189 C11.7074091,23.5497112 11.7039102,23.4825625 11.7054735,23.4187637 C11.7098657,22.5760542 11.9563508,21.9411187 12.4636888,21.3940275 C12.97862,20.8548274 13.5519156,20.6081934 14.3274764,20.6015679 C14.3821185,20.6016423 14.4339317,20.6053645 14.4865638,20.6081934 C14.6303158,20.6157867 14.76774,20.6330578 14.8992086,20.6594111 C15.3123001,20.7416721 15.6729827,20.9090973 16.0236898,21.1398746 C16.0623264,21.1656324 16.0993997,21.1925068 16.1361007,21.2199767 C16.3070249,21.3487654 16.453159,21.4967606 16.575471,21.6458726 C16.9251359,22.0711729 17.0837767,22.5023543 17.0837767,22.5023543 L17.9973572,25.539533 L17.9998883,25.5304508 L18.0029406,25.539533 L18.9161488,22.5023543 C18.9161488,22.5023543 19.0750874,22.0711729 19.4244545,21.6458726 C19.4229657,21.6000893 19.4212534,21.5542316 19.4212534,21.5078528 L19.4212534,21.4919218 C19.4211045,21.4827651 19.4211045,21.4771073 19.4212534,21.4739807 Z M6.56725319,21.545745 C6.57328318,21.5521472 6.57901539,21.5582516 6.58526871,21.5645794 L6.79944498,21.7768946 L7.12759547,22.1200084 C8.34513207,23.366876 9.42956225,24.2622177 10.445727,24.7637489 C10.6186611,24.8490621 10.789213,24.9210497 10.9587227,24.9832852 C11.3821619,25.1387993 11.7948067,25.2238147 12.2018681,25.2307381 C12.2593391,25.2309614 12.3153957,25.2261225 12.3716756,25.2244103 C12.5333686,25.2192736 12.6922328,25.2058737 12.8484914,25.1838381 C13.6660387,25.0693428 14.4029629,24.7301746 14.9966562,24.1677478 C15.6902538,23.5248468 16.0834686,22.6760329 16.1375152,21.7340146 C16.0369409,21.6288993 15.9264656,21.5285484 15.8019947,21.4470318 C15.5304963,21.2703755 15.272249,21.1418846 14.9881696,21.0634948 C15.0071529,21.1972712 15.0189151,21.3358121 15.0193617,21.4826907 C15.0127362,22.2582514 14.7661766,22.8312492 14.2267532,23.3466272 C13.6928387,23.8425751 13.0730154,24.087348 12.2591903,24.1028324 C12.2399092,24.1029813 12.2215214,24.1051402 12.2018681,24.1051402 C12.0819384,24.1082668 11.9506931,24.0953135 11.8102911,24.0670247 C11.4607751,23.9974193 11.049917,23.8275374 10.5879901,23.554699 C10.455777,23.4766069 10.3198417,23.3913682 10.1792908,23.2958561 C9.51457764,22.844277 8.76082906,22.1985471 7.93911283,21.340502 L7.60247569,20.9883805 L7.37713278,20.7652709 L7.37489945,20.7625909 C6.04785528,19.3948257 4.75148217,18.4017387 3.46761569,17.8102042 C4.75148217,17.2191909 6.04785528,16.2263272 7.37489945,14.8584131 L7.37713278,14.855882 L7.60247569,14.6325491 L7.93911283,14.2806509 C8.7603824,13.4227547 9.51435431,12.7770993 10.1792164,12.3253712 C10.1789186,12.3014746 10.1761642,12.2779502 10.1761642,12.2538303 L10.1761642,12.2257648 C10.1871819,11.767039 10.2807584,11.3132265 10.4466948,10.8571807 C9.43038113,11.3583397 8.34550429,12.2540536 7.12759547,13.5009212 L6.79944498,13.8443328 L6.58526871,14.0564991 C6.57901539,14.0626035 6.57328318,14.068708 6.56725319,14.0752591 C5.41031426,15.2713557 4.30816633,16.1235941 3.27599605,16.6528931 C2.46127759,17.1285922 0.381378171,17.7068011 0.0471232446,17.7979209 L0.046229913,17.7979209 C0.0171966343,17.805812 2.30926389e-14,17.8102042 2.30926389e-14,17.8102042 L0.000223332913,17.8102042 L2.30926389e-14,17.8107998 C2.30926389e-14,17.8107998 0.0171966343,17.8154153 0.046229913,17.823232 L0.0471232446,17.823232 C0.381378171,17.9142029 2.46127759,18.4924119 3.27599605,18.9683343 C4.30816633,19.4973355 5.41031426,20.3497228 6.56725319,21.545745 Z M13.1187986,18.7269114 C13.1187986,18.7269114 13.4187347,18.8376101 13.7650496,19.0767252 C13.941706,19.054243 14.1210423,19.0420341 14.3026864,19.0422575 L14.3181708,19.0422575 C14.3274764,19.0420341 14.3334319,19.0420341 14.3367075,19.0422575 L14.3408763,19.0422575 C14.7113856,19.0420341 15.0736316,19.0858074 15.4224032,19.1709717 C15.4082588,19.1516906 15.3961988,19.1312184 15.3817566,19.1121607 C15.0453428,18.6625171 14.5927214,18.2221046 14.0238925,17.8322398 C14.0320069,17.8270287 14.0388558,17.8215198 14.0461513,17.815862 L14.0605191,17.815862 C14.057988,17.8140754 14.0557546,17.8122142 14.0532235,17.8102042 C14.0557546,17.8087154 14.057988,17.8070776 14.0605191,17.8052165 L14.0461513,17.8052165 C14.0388558,17.7997076 14.0320069,17.7938265 14.0238925,17.7886154 C14.5927214,17.398825 15.0453428,16.9583381 15.3817566,16.5089923 C15.3961988,16.4897856 15.4082588,16.4694623 15.4224032,16.4501068 C15.5498518,16.2737483 15.6600294,16.0880842 15.7539781,15.8948267 C15.977311,15.4355054 16.1057275,14.9323363 16.1361007,14.4010273 C16.1408652,14.3140019 16.1454063,14.2267532 16.1449596,14.1383134 C16.1454063,14.0552335 16.1425774,13.9733448 16.1379618,13.891605 C16.0847342,12.9477256 15.691296,12.0975717 14.9966562,11.4537029 C14.4029629,10.8912017 13.6660387,10.5520335 12.8484914,10.4373148 C12.8029315,10.5047613 12.7572226,10.5721334 12.7158316,10.6373466 C12.5066431,10.964306 12.3580523,11.2609666 12.2595625,11.5186928 C13.0730898,11.5342516 13.6928387,11.7791734 14.2267532,12.274228 C14.7661766,12.7896059 15.0127362,13.3629015 15.0193617,14.1383134 C15.0189151,14.2851175 15.0071529,14.4233606 14.9881696,14.5570626 C14.9682185,14.6979857 14.9379941,14.8324321 14.8992086,14.9617418 C14.8060043,15.2723979 14.6638157,15.5565518 14.4807572,15.834378 C14.4065362,15.9474589 14.322563,16.0496709 14.234421,16.1432474 C14.0835224,16.304196 13.9200427,16.4372279 13.7650496,16.54413 C13.4187347,16.7833195 13.1187986,16.8940182 13.1187986,16.8940182 L10.0812477,17.807822 L10.0902554,17.8102042 L10.0812477,17.8134054 L13.1187986,18.7269114 Z M11.6429403,14.996954 C12.2023148,15.6002506 12.9174268,15.9761944 13.7142786,16.0994741 C13.882225,15.9657722 14.0487569,15.8043769 14.1736,15.6126828 C14.3052175,15.410641 14.4092162,15.2157458 14.4868616,15.0128851 C14.4340806,15.015714 14.3819696,15.0194362 14.327923,15.0194362 C13.5522134,15.0128851 12.9792156,14.7663255 12.464061,14.2268277 C11.9562764,13.6800342 11.7098657,13.0450988 11.7054735,12.2021659 C11.7037613,12.1383671 11.7073346,12.0712928 11.7144813,12.0019852 C11.7282535,11.8639654 11.761009,11.7141091 11.8099189,11.5540538 C11.9149598,11.2135456 12.0995072,10.8262863 12.3716756,10.3972638 C12.4525221,10.2696662 12.5428231,10.1375276 12.6387818,10.0031556 C13.0820976,9.38214122 13.6868087,8.6891392 14.4701861,7.93918727 L14.8221588,7.60255013 L15.0455661,7.37743055 L15.0479483,7.37497389 C16.4156391,6.04792972 17.4088006,4.75155661 18.000335,3.46776458 C18.5909017,4.75155661 19.5842865,6.04792972 20.9525728,7.37497389 L20.9545828,7.37743055 L21.1780646,7.60255013 L21.5301861,7.93918727 C22.3131913,8.6891392 22.9177535,9.38214122 23.3612182,10.0031556 C23.4885924,9.99325452 23.6167111,9.98677786 23.7463931,9.9870012 L23.7744586,9.9870012 C24.1158602,9.99504118 24.4546562,10.0493111 24.7936755,10.1440787 C24.2719699,9.21531154 23.4335037,8.22542562 22.3096924,7.12766991 L21.9667275,6.79974275 L21.7542635,6.58526871 C21.7481591,6.57916428 21.741608,6.57335762 21.7355035,6.56740208 C20.5394069,5.41046315 19.6873918,4.30831522 19.1582417,3.27614494 C18.6820215,2.46172425 18.1039615,0.381303727 18.0125439,0.0473465775 L18.0125439,0.0465276902 C18.0047272,0.0171966343 18.000335,-2.78038462e-15 18.000335,-2.78038462e-15 L18.000335,0.00052111013 L17.9998883,-2.78038462e-15 C17.9998883,-2.78038462e-15 17.9954961,0.0171966343 17.9873072,0.0465276902 L17.9873072,0.0473465775 C17.8962619,0.381303727 17.3181274,2.46172425 16.8424283,3.27614494 C16.312906,4.30831522 15.4608909,5.41046315 14.2647943,6.56740208 C14.2585409,6.57335762 14.2521387,6.57916428 14.2458854,6.58526871 L14.0339425,6.79974275 L13.6904564,7.12766991 C12.5670175,8.22535118 11.7283279,9.21449265 11.20692,10.1431109 C11.1128224,10.3101639 11.0316037,10.4746858 10.9587227,10.63824 C10.739782,11.1267435 10.6148645,11.6007304 10.588139,12.0663051 C10.5853101,12.1116416 10.5806945,12.1571271 10.5799501,12.2021659 C10.5793545,12.3213512 10.5850123,12.4386755 10.5934989,12.5552553 C10.6609455,13.4905735 11.0139604,14.3329852 11.6429403,14.996954 Z M21.6723003,15.0194362 C21.6178815,15.0194362 21.5659938,15.015714 21.5135106,15.0128851 C21.3695353,15.0053662 21.23226,14.9879462 21.1008658,14.9617418 C20.6876999,14.8794064 20.3272406,14.7119067 19.9765335,14.4809061 C19.9375991,14.4554461 19.9005259,14.4283484 19.864197,14.4010273 C19.6931985,14.2721642 19.5467665,14.1242434 19.4244545,13.9752059 C19.075013,13.5499056 18.9161488,13.1188731 18.9161488,13.1188731 L18.0027172,10.0813966 L18.000335,10.0903299 L17.9973572,10.0813966 L17.0834789,13.1188731 C17.0834789,13.1188731 16.9252848,13.5499056 16.575471,13.9753548 C16.5769599,14.0209892 16.5787466,14.0669213 16.5786721,14.1131512 L16.5786721,14.1290823 C16.5789699,14.13809 16.5789699,14.1438967 16.5786721,14.1470234 L16.5786721,14.1513411 C16.5791932,14.6616568 16.4953689,15.1561904 16.3340481,15.620425 C16.4588168,15.5473952 16.5813521,15.4701964 16.6985275,15.381831 C17.1480966,15.0454172 17.5883602,14.5930192 17.9782995,14.0242647 C17.9836595,14.0320814 17.9891684,14.0393025 17.9946028,14.0465236 L17.9946028,14.0608169 C17.9966128,14.0582113 17.9981017,14.0558291 18.000335,14.0535958 C18.001675,14.0558291 18.0036105,14.0582113 18.0054717,14.0608169 L18.0054717,14.0465236 C18.0109805,14.0393025 18.0165639,14.0320814 18.021775,14.0242647 C18.4118631,14.5930192 18.8519778,15.0454172 19.3019937,15.381831 C19.4188712,15.4701964 19.5409599,15.5473952 19.665803,15.620425 C19.8515415,15.7284437 20.0451711,15.8200847 20.2460963,15.8948267 C20.6916455,16.0607631 21.1706201,16.1465974 21.6723003,16.145034 C21.7036414,16.1452574 21.7345357,16.1439174 21.7657279,16.1434707 C21.9411187,16.1402696 22.1139784,16.1259763 22.2834136,16.1000697 C23.080861,15.9770877 23.797313,15.6009951 24.3570597,14.996954 C24.9858907,14.3329852 25.3389801,13.4905735 25.4067244,12.5552553 C25.3922822,12.5459497 25.3770211,12.5350808 25.3626534,12.5262964 C24.9492641,12.2617214 24.5834448,12.0929561 24.2855187,12.0022085 C24.2925165,12.0712928 24.2963131,12.1383671 24.2943776,12.2021659 C24.2899109,13.0450988 24.0438725,13.6800342 23.5361624,14.2268277 C23.0213055,14.7663255 22.44801,15.0128851 21.6723003,15.0194362 Z" id="Combined-Shape-Copy-2"></path>
                </g>
            </g>
        </g>
    </g>
</svg>