<?xml version="1.0" encoding="UTF-8"?>
<svg width="120px" height="100px" viewBox="0 0 120 100" version="1.1" xmlns="http://www.w3.org/2000/svg" xmlns:xlink="http://www.w3.org/1999/xlink">
    <g id="mf-logo" stroke="none" stroke-width="1" fill="none" fill-rule="evenodd">
        <path d="M118.172,66.059 C118.172,69.154 116.175,71.785 113.404,72.749 C114.011,65.642 116.233,20.919 77.794,20.84 C83.854,11.484 94.373,5.277 106.322,5.277 C110.323,5.277 114.238,5.965 117.958,7.322 L118.134,7.393 C118.159,7.634 118.172,7.878 118.172,8.125 L118.172,66.059 Z M107.822,70.666 L104.568,68.548 L92.286,66.878 L103.394,67.097 C100.292,64.837 95.553,60.949 95.553,60.949 L83.654,58.067 L94.153,59.161 L88.887,53.425 L76.413,46.097 L87.393,50.92 C76.898,34.41 80.57,25.855 80.57,25.855 C79.836,35.388 83.974,41.047 83.974,41.047 L89.377,30.553 C87.094,37.658 84.828,42.447 84.828,42.447 C85.917,46.49 89.597,51.208 89.597,51.208 L96.905,39.986 L90.735,53.097 C93.823,57.743 98.257,60.948 98.257,60.948 L103.834,49.026 L99.651,62.469 L109.234,70.158 L107.822,70.666 Z M31.121,73.147 L24.477,34.848 L26.835,34.671 L26.84,34.557 L83.877,66.047 C76.237,59.628 71.369,50.008 71.369,39.269 C71.369,32.516 73.297,26.209 76.624,20.857 L32.899,21.914 L14.234,3.297 L1.067,18.682 L1.067,8.125 C1.067,4.217 4.247,1.037 8.156,1.037 L111.084,1.037 C114.353,1.037 117.105,3.264 117.92,6.279 C114.204,4.97 110.306,4.302 106.322,4.302 C93.798,4.302 82.798,10.929 76.624,20.857 L77.177,20.843 C77.178,20.843 77.184,20.835 77.184,20.835 C77.391,20.833 77.588,20.84 77.793,20.84 C74.351,26.155 72.344,32.479 72.344,39.269 C72.344,51.5 78.837,62.239 88.553,68.228 C88.55,68.227 88.546,68.226 88.542,68.225 L83.877,66.047 C87.829,69.367 92.523,71.829 97.67,73.147 L31.121,73.147 Z M8.156,73.147 C4.654,73.147 1.744,70.592 1.175,67.249 L1.194,67.253 L7.695,33.674 L4.649,33.49 L4.313,21.968 L1.067,21.968 L1.067,20.182 L14.291,4.73 L31.55,21.947 L7.039,22.539 L8.825,31.985 L22.182,31.985 L25.461,33.796 L23.333,33.956 L30.132,73.147 L8.156,73.147 Z M1.067,22.943 L3.366,22.943 L3.7,34.41 L6.527,34.581 L1.067,62.778 L1.067,22.943 Z M111.084,0.062 L8.156,0.062 C3.703,0.062 0.092,3.672 0.092,8.125 L0.092,66.059 C0.092,70.512 3.703,74.122 8.156,74.122 L111.084,74.122 C115.537,74.122 119.147,70.512 119.147,66.059 L119.147,8.125 C119.147,3.672 115.537,0.062 111.084,0.062 L111.084,0.062 Z" id="Fill-1" fill="#FFFFFE"></path>
        <path d="M115.403,80.636 L116.296,80.636 C116.814,80.636 117.179,80.523 117.179,79.916 C117.179,79.406 116.789,79.206 116.296,79.206 L115.403,79.206 L115.403,80.636 Z M115.403,82.776 L114.97,82.776 L114.97,78.825 L116.399,78.825 C117.084,78.825 117.612,79.171 117.612,79.916 C117.612,80.532 117.274,80.965 116.677,81.018 L117.786,82.776 L117.248,82.776 L116.2,81.018 L115.403,81.018 L115.403,82.776 Z M116.148,78.001 C114.615,78.001 113.428,79.25 113.428,80.809 C113.428,82.377 114.606,83.618 116.148,83.618 C117.699,83.618 118.868,82.377 118.868,80.809 C118.868,79.25 117.699,78.001 116.148,78.001 Z M112.908,80.809 C112.908,79.016 114.381,77.569 116.148,77.569 C117.942,77.569 119.389,79.025 119.389,80.809 C119.389,82.594 117.942,84.05 116.148,84.05 C114.364,84.05 112.908,82.594 112.908,80.809 L112.908,80.809 Z" id="Fill-2" fill="#FFFFFE"></path>
        <polyline id="Fill-3" fill="#FFFFFE" points="3.142 94.689 0.014 94.689 0.014 79.458 3.554 79.458 8.098 88.707 12.664 79.458 16.203 79.458 16.203 94.689 13.076 94.689 13.076 85.19 8.098 95.146 3.142 85.19 3.142 94.689"></polyline>
        <path d="M19.222,94.689 L22.122,94.689 L22.122,84.117 L19.222,84.117 L19.222,94.689 Z M22.282,81.125 C22.282,82.016 21.597,82.702 20.684,82.702 C19.748,82.702 19.063,82.016 19.063,81.102 C19.063,80.166 19.748,79.481 20.684,79.481 C21.619,79.481 22.282,80.166 22.282,81.125 L22.282,81.125 Z" id="Fill-4" fill="#FFFFFE"></path>
        <polygon id="Fill-5" fill="#FFFFFE" points="25 94.688 27.9 94.688 27.9 79.458 25 79.458"></polygon>
        <path d="M33.837,81.125 C33.837,82.016 33.152,82.702 32.239,82.702 C31.303,82.702 30.618,82.016 30.618,81.102 C30.618,80.166 31.303,79.481 32.239,79.481 C33.175,79.481 33.837,80.166 33.837,81.125 Z M33.677,95.031 C33.677,96.63 33.357,97.703 32.673,98.411 C31.965,99.164 30.914,99.553 29.567,99.553 C29.407,99.553 29.111,99.553 28.791,99.53 L28.791,96.881 L29.225,96.881 C30.206,96.881 30.777,96.196 30.777,95.031 L30.777,84.117 L33.677,84.117 L33.677,95.031 L33.677,95.031 Z" id="Fill-6" fill="#FFFFFE"></path>
        <path d="M39.82,91.88 C40.391,92.292 40.985,92.474 41.647,92.474 C43.337,92.474 44.524,91.218 44.524,89.414 C44.524,88.707 44.41,88.227 44.067,87.656 L39.82,91.88 Z M43.382,86.902 C42.812,86.514 42.31,86.355 41.625,86.355 C39.867,86.355 38.702,87.587 38.702,89.46 C38.702,90.099 38.816,90.51 39.112,91.081 L43.382,86.902 Z M36.624,94.94 L35.893,94.186 L37.081,93.022 C36.236,91.971 35.87,90.876 35.87,89.414 C35.87,86.126 38.245,83.751 41.533,83.751 C43.017,83.751 44.181,84.14 45.369,85.008 L46.625,83.797 L47.31,84.551 L46.1,85.738 C46.99,86.948 47.379,88.067 47.379,89.46 C47.379,92.634 44.889,95.055 41.625,95.055 C40.186,95.055 38.953,94.643 37.834,93.776 L36.624,94.94 L36.624,94.94 Z" id="Fill-7" fill="#FFFFFE"></path>
        <path d="M52.656,94.689 L49.756,94.689 L49.756,86.56 L48.592,86.56 L48.592,84.117 L49.756,84.117 L49.756,83.523 C49.756,80.692 51.149,79.367 54.049,79.458 L54.049,82.13 C53.045,82.244 52.656,82.632 52.656,83.523 L52.656,84.117 L54.049,84.117 L54.049,86.56 L52.656,86.56 L52.656,94.689" id="Fill-8" fill="#FFFFFE"></path>
        <polyline id="Fill-9" fill="#FFFFFE" points="62.68 84.117 65.764 84.117 59.804 99.507 56.698 99.507 58.685 94.438 54.986 84.117 58.068 84.117 60.215 90.396 62.68 84.117"></polyline>
        <path d="M70.081,84.117 L70.081,85.67 C70.378,84.894 70.584,84.573 71.017,84.254 C71.474,83.934 72.091,83.751 72.73,83.751 C72.799,83.751 72.913,83.751 73.072,83.774 L73.072,86.743 C72.844,86.72 72.615,86.697 72.456,86.697 C71.657,86.697 70.926,87.063 70.516,87.656 C70.173,88.136 70.081,88.592 70.081,89.597 L70.081,94.689 L67.181,94.689 L67.181,84.117 L70.081,84.117" id="Fill-10" fill="#FFFFFE"></path>
        <path d="M78.212,91.584 C78.212,92.085 78.394,92.223 79.034,92.269 L79.536,92.269 L79.536,94.689 L77.23,94.689 C75.815,94.643 75.289,94.072 75.312,92.679 L75.312,86.514 L74.103,86.514 L74.103,84.071 L75.312,84.071 L75.312,81.24 L78.212,81.24 L78.212,84.071 L79.536,84.071 L79.536,86.514 L78.212,86.514 L78.212,91.584" id="Fill-11" fill="#FFFFFE"></path>
        <path d="M85.931,80.852 C85.931,81.423 86.388,81.879 86.981,81.879 C87.529,81.879 88.009,81.423 88.009,80.874 C88.009,80.28 87.552,79.824 86.981,79.824 C86.388,79.824 85.931,80.28 85.931,80.852 Z M89.082,80.897 C89.082,82.016 88.146,82.93 86.981,82.93 C85.794,82.93 84.857,82.016 84.857,80.852 C84.857,79.687 85.794,78.774 86.981,78.774 C88.169,78.774 89.082,79.687 89.082,80.897 Z M84.058,89.483 C84.058,91.332 85.269,92.725 86.844,92.725 C88.465,92.725 89.767,91.218 89.767,89.392 C89.767,87.519 88.579,86.194 86.867,86.194 C85.223,86.194 84.058,87.542 84.058,89.483 Z M89.721,84.117 L92.621,84.117 L92.621,94.689 L89.721,94.689 L89.721,93.227 C88.74,94.484 87.598,95.055 86.045,95.055 C83.077,95.055 80.953,92.748 80.953,89.528 C80.953,86.194 83.191,83.751 86.273,83.751 C87.712,83.751 88.694,84.254 89.721,85.464 L89.721,84.117 L89.721,84.117 Z" id="Fill-12" fill="#FFFFFE"></path>
        <path d="M98.378,84.117 L98.378,85.67 C98.675,84.894 98.881,84.573 99.314,84.254 C99.771,83.934 100.388,83.751 101.028,83.751 C101.096,83.751 101.21,83.751 101.37,83.774 L101.37,86.743 C101.142,86.72 100.913,86.697 100.753,86.697 C99.954,86.697 99.223,87.063 98.813,87.656 C98.47,88.136 98.378,88.592 98.378,89.597 L98.378,94.689 L95.479,94.689 L95.479,84.117 L98.378,84.117" id="Fill-13" fill="#FFFFFE"></path>
        <path d="M105.847,84.117 L105.847,85.418 C106.623,84.208 107.399,83.751 108.724,83.751 C109.728,83.751 110.688,84.117 111.326,84.733 C112.012,85.418 112.263,86.263 112.263,87.999 L112.263,94.689 L109.363,94.689 L109.363,88.136 C109.363,87.542 109.295,87.2 109.112,86.902 C108.838,86.469 108.29,86.194 107.72,86.194 C106.6,86.194 105.847,87.04 105.847,88.272 L105.847,94.689 L102.947,94.689 L102.947,84.117 L105.847,84.117" id="Fill-14" fill="#FFFFFE"></path>
    </g>
</svg>
